<svg data-v-423bf9ae="" xmlns="http://www.w3.org/2000/svg" viewBox="0 0 176.10777547195454 60" class="font"><!----><!----><!----><g data-v-423bf9ae="" id="c8eda074-5ed2-4e05-9245-4bcbe24b99c5" fill="black" transform="matrix(5.988023678532963,0,0,5.988023678532963,-5.02993962410325,-22.15568861135892)"><path d="M0.84 3.86L0.84 3.86L0.84 3.86Q1.29 3.70 1.81 3.70L1.81 3.70L1.81 3.70Q3.05 3.70 3.05 4.83L3.05 4.83L3.05 4.83Q3.05 5.45 2.91 6.85L2.91 6.85L2.91 6.85Q2.77 8.26 2.77 9.77L2.77 9.77L2.77 9.77Q2.77 11.28 2.87 12.28L2.87 12.28L2.87 12.28Q3.25 12.32 3.63 12.32L3.63 12.32L3.63 12.32Q5.47 12.32 6.87 11.70L6.87 11.70L6.87 11.70Q7.04 12.08 7.04 12.56L7.04 12.56L7.04 12.56Q7.04 13.03 6.71 13.38L6.71 13.38L6.71 13.38Q6.38 13.72 5.91 13.72L5.91 13.72L5.91 13.72Q4.91 13.72 1.55 13.55L1.55 13.55L1.55 13.55Q1.29 13.54 1.09 13.39L1.09 13.39L1.09 13.39Q0.90 13.24 0.90 13.02L0.90 13.02L0.90 13.02Q0.90 12.28 1.02 10.51L1.02 10.51L1.02 10.51Q1.13 8.75 1.13 7.26L1.13 7.26L1.13 7.26Q1.13 5.77 0.84 3.86ZM8.08 12.21L8.08 12.21L8.22 9.30L8.22 9.30Q8.22 7.94 7.83 6.72L7.83 6.72L7.83 6.72Q8.22 6.55 8.79 6.55L8.79 6.55L8.79 6.55Q9.91 6.55 9.91 7.80L9.91 7.80L9.91 7.80Q9.91 8.50 9.76 9.77L9.76 9.77L9.76 9.77Q9.60 11.03 9.60 11.61L9.60 11.61L9.60 11.61Q9.60 12.31 10.23 12.31L10.23 12.31L10.23 12.31Q10.61 12.31 11.12 11.67L11.12 11.67L11.12 11.67Q11.63 11.03 12.00 10.24L12.00 10.24L12.00 10.24Q12.38 9.45 12.45 8.95L12.45 8.95L12.45 8.95Q12.36 7.41 12.21 6.72L12.21 6.72L12.21 6.72Q12.66 6.55 13.13 6.55L13.13 6.55L13.13 6.55Q13.59 6.55 13.91 6.85L13.91 6.85L13.91 6.85Q14.22 7.14 14.22 7.57L14.22 7.57L14.22 7.57Q14.22 8.01 14.10 9.02L14.10 9.02L14.10 9.02Q13.97 10.02 13.97 11.12L13.97 11.12L13.97 11.12Q13.97 12.22 14.22 13.47L14.22 13.47L14.22 13.47Q13.68 13.64 13.24 13.64L13.24 13.64L13.24 13.64Q12.38 13.64 12.38 12.49L12.38 12.49L12.38 12.49Q12.38 11.98 12.49 11.09L12.49 11.09L12.49 11.09Q11.93 12.28 11.12 13.00L11.12 13.00L11.12 13.00Q10.32 13.72 9.49 13.72L9.49 13.72L9.49 13.72Q8.08 13.72 8.08 12.21ZM22.18 7.98L22.18 7.98L22.04 11.06L22.04 11.06Q22.04 12.33 22.43 13.55L22.43 13.55L22.43 13.55Q22.04 13.72 21.53 13.72L21.53 13.72L21.53 13.72Q20.34 13.72 20.34 12.39L20.34 12.39L20.34 12.39Q20.34 11.79 20.50 10.37L20.50 10.37L20.50 10.37Q20.65 8.95 20.65 8.58L20.65 8.58L20.65 8.58Q20.65 7.88 20.02 7.88L20.02 7.88L20.02 7.88Q19.56 7.88 18.98 8.55L18.98 8.55L18.98 8.55Q18.40 9.21 17.98 10.03L17.98 10.03L17.98 10.03Q17.57 10.85 17.50 11.38L17.50 11.38L17.50 11.38Q17.56 12.47 17.78 13.47L17.78 13.47L17.78 13.47Q17.33 13.64 16.85 13.64L16.85 13.64L16.85 13.64Q16.37 13.64 16.06 13.41L16.06 13.41L16.06 13.41Q15.76 13.17 15.76 12.76L15.76 12.76L15.76 12.76Q15.76 12.35 15.89 11.28L15.89 11.28L15.89 11.28Q16.02 10.21 16.02 9.15L16.02 9.15L16.02 9.15Q16.02 8.09 15.69 6.72L15.69 6.72L15.69 6.72Q16.14 6.55 16.65 6.55L16.65 6.55L16.65 6.55Q17.15 6.55 17.46 6.85L17.46 6.85L17.46 6.85Q17.78 7.14 17.78 7.57L17.78 7.57L17.78 7.57Q17.78 8.01 17.67 8.96L17.67 8.96L17.67 8.96Q18.20 7.97 19.05 7.22L19.05 7.22L19.05 7.22Q19.91 6.47 20.76 6.47L20.76 6.47L20.76 6.47Q22.18 6.47 22.18 7.98ZM30.25 7.04L30.25 7.04L30.25 7.04Q29.88 8.65 29.88 10.27L29.88 10.27L29.88 10.27Q29.88 11.89 30.24 13.47L30.24 13.47L30.24 13.47Q29.74 13.64 29.20 13.64L29.20 13.64L29.20 13.64Q28.67 13.64 28.46 13.32L28.46 13.32L28.46 13.32Q28.25 13.01 28.25 12.41L28.25 12.41L28.25 12.41Q28.25 11.82 28.43 10.78L28.43 10.78L28.43 10.78Q27.44 12.91 26.52 13.47L26.52 13.47L26.52 13.47Q26.10 13.72 25.65 13.72L25.65 13.72L25.65 13.72Q24.58 13.72 24.00 12.93L24.00 12.93L24.00 12.93Q23.41 12.14 23.41 10.96L23.41 10.96L23.41 10.96Q23.41 9.17 24.40 7.82L24.40 7.82L24.40 7.82Q25.40 6.47 26.98 6.47L26.98 6.47L26.98 6.47Q28.57 6.47 30.25 7.04ZM28.42 7.88L28.42 7.88L28.42 7.88Q27.68 7.66 27.16 7.66L27.16 7.66L27.16 7.66Q26.11 7.66 25.59 8.12L25.59 8.12L25.59 8.12Q25.12 9.30 25.12 10.51L25.12 10.51L25.12 10.51Q25.12 11.16 25.32 11.82L25.32 11.82L25.32 11.82Q25.52 12.47 25.94 12.47L25.94 12.47L25.94 12.47Q26.43 12.47 27.20 11.03L27.20 11.03L27.20 11.03Q27.97 9.59 28.42 7.88Z"></path></g><!----><!----></svg>