<?xml version="1.0" encoding="utf-8"?>
<svg data-v-423bf9ae="" viewBox="0 0 90 90" class="iconLeft" xmlns="http://www.w3.org/2000/svg">
  <defs data-v-423bf9ae="">
    <linearGradient data-v-423bf9ae="" gradientTransform="rotate(25)" id="e5dd281c-a1b2-4c73-8f6b-4b1e6e10f72f" x1="0%" y1="0%" x2="100%" y2="0%">
      <stop data-v-423bf9ae="" offset="0" style="stop-color: rgb(0, 118, 221); stop-opacity: 1;"/>
      <stop data-v-423bf9ae="" offset="1" style="stop-color: rgb(230, 0, 233); stop-opacity: 1;"/>
    </linearGradient>
  </defs>
  <g data-v-423bf9ae="" id="72042a91-5bd9-499e-9a85-7187658ee008" transform="matrix(3.75,0,0,3.75,0,0)" stroke="none" fill="url(#e5dd281c-a1b2-4c73-8f6b-4b1e6e10f72f)">
    <path d="M12 24a1 1 0 0 1-1-1c0-2.757 2.243-5 5-5a1 1 0 1 1 0 2c-1.654 0-3 1.346-3 3a1 1 0 0 1-1 1zm-4-4a1 1 0 1 1 0-2c1.654 0 3-1.346 3-3a1 1 0 1 1 2 0c0 2.757-2.243 5-5 5zm4 4a1 1 0 0 1-1-1c0-1.654-1.346-3-3-3a1 1 0 1 1 0-2c2.757 0 5 2.243 5 5a1 1 0 0 1-1 1zm4-4c-2.757 0-5-2.243-5-5a1 1 0 1 1 2 0c0 1.654 1.346 3 3 3a1 1 0 1 1 0 2zm3-10a1 1 0 0 1-1-1c0-2.757 2.243-5 5-5a1 1 0 1 1 0 2c-1.654 0-3 1.346-3 3a1 1 0 0 1-1 1zm-4-4a1 1 0 1 1 0-2c1.654 0 3-1.346 3-3a1 1 0 1 1 2 0c0 2.757-2.243 5-5 5zm4 4a1 1 0 0 1-1-1c0-1.654-1.346-3-3-3a1 1 0 1 1 0-2c2.757 0 5 2.243 5 5a1 1 0 0 1-1 1zm4-4c-2.757 0-5-2.243-5-5a1 1 0 1 1 2 0c0 1.654 1.346 3 3 3a1 1 0 1 1 0 2zM6 4a1 1 0 0 1-1-1V1a1 1 0 0 1 2 0v2a1 1 0 0 1-1 1zm0 8a1 1 0 0 1-1-1V9a1 1 0 0 1 2 0v2a1 1 0 0 1-1 1zm0-5c-.26 0-.52-.11-.71-.29C5.11 6.52 5 6.26 5 6c0-.26.11-.52.29-.71.37-.37 1.04-.37 1.42 0 .18.19.29.45.29.71 0 .26-.11.52-.29.71-.19.18-.45.29-.71.29zM3 7H1a1 1 0 0 1 0-2h2a1 1 0 0 1 0 2zm8 0H9a1 1 0 0 1 0-2h2a1 1 0 0 1 0 2z"/>
    <circle cx="5" cy="23" r="1"/>
    <circle cx="2" cy="16" r="1"/>
    <circle cx="19" cy="23" r="1"/>
    <circle cx="12" cy="11" r="1"/>
    <circle cx="20" cy="15" r="1"/>
  </g>
</svg>